<svg width="115" height="38" viewBox="0 0 115 38" fill="none" xmlns="http://www.w3.org/2000/svg">
<path d="M20.841 37.9123C20.2355 37.97 19.6224 37.9993 19.0016 38.0003C15.5415 38.006 12.146 37.0627 9.18475 35.2729L9.65614 27.0028H16.8479C17.0953 27.0036 17.3357 27.0845 17.5332 27.2335C17.7307 27.3824 17.8747 27.5912 17.9435 27.8288L20.841 37.9123Z" fill="black"/>
<path d="M21.4406 11.4847C21.4262 11.5052 21.407 11.5218 21.3846 11.5331C21.3622 11.5444 21.3374 11.5501 21.3123 11.5495H16.6894C16.6643 11.5501 16.6395 11.5444 16.6171 11.5331C16.5947 11.5218 16.5755 11.5052 16.5611 11.4847C16.546 11.4642 16.536 11.4405 16.5317 11.4155C16.5275 11.3905 16.5291 11.3648 16.5366 11.3405C16.697 10.8117 17.0233 10.3485 17.4671 10.0194C17.911 9.69021 18.449 9.51251 19.0016 9.51251C19.5542 9.51251 20.0921 9.69021 20.536 10.0194C20.9799 10.3485 21.3061 10.8117 21.4666 11.3405C21.4735 11.3649 21.4747 11.3906 21.4702 11.4156C21.4657 11.4405 21.4556 11.4642 21.4406 11.4847Z" fill="black"/>
<path d="M38.0053 19.0037C38.0035 23.5451 36.3756 27.9358 33.4164 31.3807C30.4572 34.8257 26.3623 37.0972 21.8731 37.784L18.9281 27.5333C18.7943 27.0735 18.5153 26.6693 18.1329 26.3812C17.7504 26.093 17.285 25.9364 16.8061 25.9346H9.49037L5.86491 15.4907L4.85584 15.841L8.57067 26.5444L8.1137 34.5723C4.83831 32.2818 2.36839 29.017 1.05516 25.242C-0.258066 21.4671 -0.347763 17.3743 0.798826 13.5454C1.94541 9.7166 4.26992 6.3467 7.44183 3.91491C10.6137 1.48312 14.4716 0.113221 18.4668 0V8.48053C17.865 8.56736 17.2952 8.80543 16.8105 9.17247C16.1934 9.63879 15.7393 10.2881 15.5131 11.0277C15.4579 11.2112 15.4463 11.4051 15.4792 11.5939C15.5122 11.7827 15.5887 11.9612 15.7028 12.1152C15.8169 12.2692 15.9654 12.3944 16.1364 12.4809C16.3074 12.5674 16.4963 12.6128 16.6879 12.6134H21.3109C21.5027 12.6131 21.6917 12.5679 21.8629 12.4815C22.0341 12.3951 22.1827 12.2699 22.2968 12.1158C22.411 11.9617 22.4875 11.7831 22.5203 11.5942C22.5531 11.4052 22.5413 11.2113 22.4858 11.0277C22.2601 10.2878 21.8059 9.63838 21.1884 9.17247C20.7037 8.80543 20.1338 8.56736 19.5321 8.48053V0C24.4797 0.138164 29.1781 2.20117 32.6281 5.75019C36.0781 9.29921 38.0072 14.0542 38.0053 19.0037Z" fill="white"/>
<path d="M19.0016 9.50839C19.5534 9.51133 20.09 9.69015 20.5333 10.0189C20.9766 10.3476 21.3035 10.809 21.4666 11.3363C21.4735 11.3607 21.4747 11.3863 21.4702 11.4113C21.4657 11.4363 21.4556 11.4599 21.4406 11.4804C21.4262 11.5009 21.407 11.5176 21.3846 11.5289C21.3622 11.5402 21.3374 11.5458 21.3123 11.5453H16.6894C16.6643 11.5458 16.6395 11.5402 16.6171 11.5289C16.5947 11.5176 16.5755 11.5009 16.5611 11.4804C16.546 11.46 16.536 11.4363 16.5317 11.4112C16.5275 11.3862 16.5291 11.3605 16.5366 11.3363C16.6997 10.809 17.0266 10.3476 17.4699 10.0189C17.9132 9.69015 18.4497 9.51133 19.0016 9.50839Z" fill="#096A62"/>
<path d="M17.9435 27.8288L20.841 37.9123C20.2355 37.97 19.6224 37.9993 19.0016 38.0003C15.5415 38.006 12.146 37.0627 9.18475 35.2729L9.65614 27.0028H16.8479C17.0953 27.0036 17.3357 27.0845 17.5332 27.2335C17.7307 27.3824 17.8747 27.5912 17.9435 27.8288Z" fill="white"/>
<path d="M49 27.1015V10H51.2672V27.1015H49ZM50.5436 19.5857V17.4665H59.2746V19.5857H50.5436ZM50.5436 12.1192V10H59.6846V12.1192H50.5436Z" fill="white"/>
<path d="M66.8818 27.348C65.9492 27.348 65.105 27.1344 64.3493 26.7073C63.6097 26.2637 63.0308 25.6559 62.6128 24.8838C62.1947 24.1116 61.9857 23.2163 61.9857 22.1978V15.3966H64.1564V22.0992C64.1564 22.7399 64.2609 23.2985 64.4699 23.7749C64.695 24.2349 65.0166 24.5881 65.4347 24.8345C65.8527 25.0809 66.3431 25.2041 66.9059 25.2041C67.7581 25.2041 68.4254 24.933 68.9078 24.3909C69.3901 23.8324 69.6313 23.0685 69.6313 22.0992V15.3966H71.802V22.1978C71.802 23.2163 71.593 24.1116 71.1749 24.8838C70.7569 25.6559 70.178 26.2637 69.4384 26.7073C68.7148 27.1344 67.8626 27.348 66.8818 27.348Z" fill="white"/>
<path d="M74.7113 27.1015V15.3966H76.882V27.1015H74.7113ZM76.882 20.4236L76.062 20.0539C76.062 18.559 76.3997 17.368 77.075 16.4808C77.7503 15.5937 78.7231 15.1502 79.9933 15.1502C80.5722 15.1502 81.0948 15.257 81.5611 15.4705C82.0274 15.6677 82.4615 16.0044 82.8635 16.4808L81.4405 17.984C81.1993 17.7212 80.934 17.5322 80.6446 17.4172C80.3551 17.3022 80.0175 17.2447 79.6316 17.2447C78.8276 17.2447 78.1684 17.5076 77.6538 18.0333C77.1393 18.559 76.882 19.3557 76.882 20.4236Z" fill="white"/>
<path d="M92.5428 27.1015V20.2757C92.5428 19.3886 92.2695 18.6576 91.7228 18.0826C91.1761 17.5076 90.4686 17.2201 89.6003 17.2201C89.0215 17.2201 88.5069 17.3515 88.0567 17.6144C87.6065 17.8772 87.2528 18.2386 86.9955 18.6986C86.7382 19.1586 86.6096 19.6843 86.6096 20.2757L85.7172 19.7582C85.7172 18.8711 85.9102 18.0826 86.2961 17.3926C86.682 16.7026 87.2206 16.1605 87.912 15.7662C88.6034 15.3555 89.3833 15.1502 90.2515 15.1502C91.1198 15.1502 91.8836 15.372 92.5428 15.8155C93.2181 16.2591 93.7488 16.8423 94.1347 17.5651C94.5206 18.2715 94.7135 19.0272 94.7135 19.8322V27.1015H92.5428ZM84.4389 27.1015V15.3966H86.6096V27.1015H84.4389Z" fill="white"/>
<path d="M97.6765 27.1015V15.3966H99.8472V27.1015H97.6765ZM98.7619 13.0556C98.3599 13.0556 98.0303 12.9242 97.773 12.6613C97.5157 12.3821 97.3871 12.0371 97.3871 11.6264C97.3871 11.2321 97.5157 10.9035 97.773 10.6407C98.0303 10.3614 98.3599 10.2218 98.7619 10.2218C99.1639 10.2218 99.4935 10.3614 99.7507 10.6407C100.008 10.9035 100.137 11.2321 100.137 11.6264C100.137 12.0371 100.008 12.3821 99.7507 12.6613C99.4935 12.9242 99.1639 13.0556 98.7619 13.0556Z" fill="white"/>
<path d="M108.28 27.348C107.154 27.348 106.141 27.0769 105.241 26.5348C104.341 25.9927 103.625 25.2616 103.094 24.3416C102.564 23.4052 102.298 22.3621 102.298 21.2121C102.298 20.0786 102.564 19.06 103.094 18.1565C103.625 17.2365 104.341 16.5055 105.241 15.9634C106.141 15.4212 107.154 15.1502 108.28 15.1502C109.389 15.1502 110.394 15.4212 111.295 15.9634C112.211 16.4891 112.935 17.2119 113.465 18.1319C113.996 19.0518 114.261 20.0786 114.261 21.2121C114.261 22.3621 113.996 23.4052 113.465 24.3416C112.935 25.2616 112.211 25.9927 111.295 26.5348C110.394 27.0769 109.389 27.348 108.28 27.348ZM108.28 25.2041C109.003 25.2041 109.647 25.0316 110.209 24.6866C110.772 24.3416 111.214 23.8734 111.536 23.282C111.858 22.6742 112.018 21.9842 112.018 21.2121C112.018 20.4564 111.849 19.7829 111.512 19.1915C111.19 18.6001 110.748 18.1401 110.185 17.8115C109.639 17.4665 109.003 17.294 108.28 17.294C107.556 17.294 106.913 17.4665 106.35 17.8115C105.788 18.1401 105.345 18.6001 105.024 19.1915C104.702 19.7829 104.542 20.4564 104.542 21.2121C104.542 21.9842 104.702 22.6742 105.024 23.282C105.345 23.8734 105.788 24.3416 106.35 24.6866C106.913 25.0316 107.556 25.2041 108.28 25.2041Z" fill="white"/>
</svg>
