<svg width="114" height="38" viewBox="0 0 114 38" fill="none" xmlns="http://www.w3.org/2000/svg">
<path d="M20.841 37.9123C20.2355 37.97 19.6224 37.9993 19.0016 38.0003C15.5415 38.006 12.146 37.0627 9.18475 35.2729L9.65614 27.0028H16.8479C17.0953 27.0036 17.3357 27.0845 17.5332 27.2335C17.7307 27.3824 17.8747 27.5912 17.9435 27.8288L20.841 37.9123Z" fill="black"/>
<path d="M21.4406 11.4847C21.4262 11.5052 21.407 11.5218 21.3846 11.5331C21.3622 11.5444 21.3374 11.5501 21.3123 11.5495H16.6894C16.6643 11.5501 16.6395 11.5444 16.6171 11.5331C16.5947 11.5218 16.5755 11.5052 16.5611 11.4847C16.546 11.4642 16.536 11.4405 16.5317 11.4155C16.5275 11.3905 16.5291 11.3648 16.5366 11.3405C16.697 10.8117 17.0233 10.3485 17.4671 10.0194C17.911 9.69021 18.449 9.51251 19.0016 9.51251C19.5542 9.51251 20.0921 9.69021 20.536 10.0194C20.9799 10.3485 21.3061 10.8117 21.4666 11.3405C21.4735 11.3649 21.4747 11.3906 21.4702 11.4156C21.4657 11.4405 21.4556 11.4642 21.4406 11.4847Z" fill="black"/>
<path d="M38.0053 19.0037C38.0035 23.5451 36.3756 27.9358 33.4164 31.3807C30.4572 34.8257 26.3623 37.0972 21.8731 37.784L18.9281 27.5333C18.7943 27.0735 18.5153 26.6693 18.1329 26.3812C17.7504 26.093 17.285 25.9364 16.8061 25.9346H9.49037L5.86491 15.4907L4.85584 15.841L8.57067 26.5444L8.1137 34.5723C4.83831 32.2818 2.36839 29.0169 1.05516 25.242C-0.258066 21.4671 -0.347763 17.3743 0.798826 13.5454C1.94541 9.7166 4.26992 6.3467 7.44183 3.91491C10.6137 1.48312 14.4716 0.113221 18.4668 0V8.48053C17.865 8.56736 17.2952 8.80543 16.8105 9.17247C16.1934 9.63879 15.7393 10.2881 15.5131 11.0277C15.4579 11.2112 15.4463 11.4051 15.4792 11.5939C15.5122 11.7827 15.5887 11.9612 15.7028 12.1152C15.8169 12.2692 15.9654 12.3944 16.1364 12.4809C16.3074 12.5674 16.4963 12.6128 16.6879 12.6134H21.3109C21.5027 12.6131 21.6917 12.5679 21.8629 12.4815C22.0341 12.3951 22.1827 12.2699 22.2968 12.1158C22.411 11.9617 22.4875 11.7831 22.5203 11.5942C22.5531 11.4052 22.5413 11.2113 22.4858 11.0277C22.2601 10.2878 21.8059 9.63838 21.1884 9.17247C20.7037 8.80543 20.1338 8.56736 19.5321 8.48053V0C24.4797 0.138164 29.1781 2.20117 32.6281 5.75019C36.0781 9.29921 38.0072 14.0542 38.0053 19.0037Z" fill="#096A62"/>
<path d="M19.0016 9.50839C19.5534 9.51133 20.09 9.69015 20.5333 10.0189C20.9766 10.3476 21.3035 10.809 21.4666 11.3363C21.4735 11.3607 21.4747 11.3863 21.4702 11.4113C21.4657 11.4363 21.4556 11.4599 21.4406 11.4804C21.4262 11.5009 21.407 11.5176 21.3846 11.5289C21.3622 11.5402 21.3374 11.5458 21.3123 11.5453H16.6894C16.6643 11.5458 16.6395 11.5402 16.6171 11.5289C16.5947 11.5176 16.5755 11.5009 16.5611 11.4804C16.546 11.46 16.536 11.4363 16.5317 11.4112C16.5275 11.3862 16.5291 11.3605 16.5366 11.3363C16.6997 10.809 17.0266 10.3476 17.4699 10.0189C17.9132 9.69015 18.4497 9.51133 19.0016 9.50839Z" fill="#096A62"/>
<path d="M17.9435 27.8288L20.841 37.9123C20.2355 37.97 19.6224 37.9993 19.0016 38.0003C15.5415 38.006 12.146 37.0627 9.18475 35.2729L9.65614 27.0028H16.8479C17.0953 27.0036 17.3357 27.0845 17.5332 27.2335C17.7307 27.3824 17.8747 27.5912 17.9435 27.8288Z" fill="#096A62"/>
<path d="M48.7386 27.0147V9.91315H51.0058V27.0147H48.7386ZM50.2822 19.4989V17.3797H59.0132V19.4989H50.2822ZM50.2822 12.0324V9.91315H59.4233V12.0324H50.2822Z" fill="black"/>
<path d="M66.6204 27.2611C65.6878 27.2611 64.8437 27.0475 64.088 26.6204C63.3483 26.1769 62.7695 25.569 62.3514 24.7969C61.9334 24.0248 61.7243 23.1295 61.7243 22.1109V15.3097H63.895V22.0124C63.895 22.6531 63.9995 23.2116 64.2086 23.688C64.4337 24.148 64.7553 24.5012 65.1733 24.7476C65.5914 24.994 66.0818 25.1173 66.6446 25.1173C67.4968 25.1173 68.164 24.8462 68.6464 24.3041C69.1288 23.7455 69.37 22.9816 69.37 22.0124V15.3097H71.5407V22.1109C71.5407 23.1295 71.3316 24.0248 70.9136 24.7969C70.4955 25.569 69.9167 26.1769 69.177 26.6204C68.4535 27.0475 67.6013 27.2611 66.6204 27.2611Z" fill="black"/>
<path d="M74.45 27.0147V15.3097H76.6207V27.0147H74.45ZM76.6207 20.3367L75.8006 19.9671C75.8006 18.4721 76.1383 17.2811 76.8136 16.394C77.4889 15.5069 78.4617 15.0633 79.732 15.0633C80.3108 15.0633 80.8334 15.1701 81.2997 15.3837C81.766 15.5808 82.2001 15.9176 82.6021 16.394L81.1791 17.8972C80.9379 17.6343 80.6726 17.4454 80.3832 17.3304C80.0938 17.2154 79.7561 17.1579 79.3702 17.1579C78.5663 17.1579 77.907 17.4207 77.3925 17.9464C76.8779 18.4721 76.6207 19.2689 76.6207 20.3367Z" fill="black"/>
<path d="M92.2815 27.0147V20.1889C92.2815 19.3017 92.0081 18.5707 91.4614 17.9957C90.9147 17.4207 90.2073 17.1332 89.339 17.1332C88.7601 17.1332 88.2456 17.2647 87.7954 17.5275C87.3452 17.7904 86.9914 18.1518 86.7342 18.6118C86.4769 19.0718 86.3483 19.5975 86.3483 20.1889L85.4559 19.6714C85.4559 18.7843 85.6488 17.9957 86.0347 17.3057C86.4206 16.6158 86.9593 16.0736 87.6507 15.6794C88.3421 15.2687 89.1219 15.0633 89.9902 15.0633C90.8585 15.0633 91.6222 15.2851 92.2815 15.7287C92.9568 16.1722 93.4874 16.7554 93.8733 17.4782C94.2592 18.1846 94.4522 18.9403 94.4522 19.7453V27.0147H92.2815ZM84.1776 27.0147V15.3097H86.3483V27.0147H84.1776Z" fill="black"/>
<path d="M97.4152 27.0147V15.3097H99.5859V27.0147H97.4152ZM98.5005 12.9688C98.0985 12.9688 97.7689 12.8373 97.5117 12.5745C97.2544 12.2952 97.1258 11.9502 97.1258 11.5395C97.1258 11.1452 97.2544 10.8167 97.5117 10.5538C97.7689 10.2746 98.0985 10.1349 98.5005 10.1349C98.9025 10.1349 99.2321 10.2746 99.4894 10.5538C99.7467 10.8167 99.8753 11.1452 99.8753 11.5395C99.8753 11.9502 99.7467 12.2952 99.4894 12.5745C99.2321 12.8373 98.9025 12.9688 98.5005 12.9688Z" fill="black"/>
<path d="M108.019 27.2611C106.893 27.2611 105.88 26.99 104.98 26.4479C104.079 25.9058 103.364 25.1748 102.833 24.2548C102.302 23.3184 102.037 22.2752 102.037 21.1253C102.037 19.9917 102.302 18.9732 102.833 18.0696C103.364 17.1497 104.079 16.4186 104.98 15.8765C105.88 15.3344 106.893 15.0633 108.019 15.0633C109.128 15.0633 110.133 15.3344 111.033 15.8765C111.95 16.4022 112.673 17.125 113.204 18.045C113.735 18.965 114 19.9917 114 21.1253C114 22.2752 113.735 23.3184 113.204 24.2548C112.673 25.1748 111.95 25.9058 111.033 26.4479C110.133 26.99 109.128 27.2611 108.019 27.2611ZM108.019 25.1173C108.742 25.1173 109.385 24.9448 109.948 24.5998C110.511 24.2548 110.953 23.7866 111.275 23.1952C111.596 22.5873 111.757 21.8974 111.757 21.1253C111.757 20.3696 111.588 19.696 111.25 19.1046C110.929 18.5132 110.487 18.0532 109.924 17.7247C109.377 17.3797 108.742 17.2072 108.019 17.2072C107.295 17.2072 106.652 17.3797 106.089 17.7247C105.526 18.0532 105.084 18.5132 104.763 19.1046C104.441 19.696 104.28 20.3696 104.28 21.1253C104.28 21.8974 104.441 22.5873 104.763 23.1952C105.084 23.7866 105.526 24.2548 106.089 24.5998C106.652 24.9448 107.295 25.1173 108.019 25.1173Z" fill="black"/>
</svg>
