<svg width="26" height="27" viewBox="0 0 26 27" fill="none" xmlns="http://www.w3.org/2000/svg">
<path d="M26 16.024C26 14.5252 25.1112 13.1777 23.7357 12.591C23.5869 12.5273 23.434 12.4775 23.2796 12.434L23.2688 10.2666C23.2673 4.60562 18.6613 0 12.9998 0C7.33807 0 2.73146 4.60642 2.73146 10.2683V12.4319C2.57703 12.4738 2.42132 12.5244 2.26482 12.5907C0.88909 13.1771 0 14.5246 0 16.0239C0 17.5014 0.865409 18.8281 2.20286 19.4257C2.09776 19.7089 2.04072 20.0036 2.04072 20.3078V21.5492C2.04072 22.9203 3.15616 24.0358 4.5273 24.0358H5.38678V25.9085C5.38678 26.1122 5.55175 26.277 5.75526 26.277C5.95851 26.277 6.12374 26.1122 6.12374 25.9085V24.0358H19.8765V25.9085C19.8765 26.1122 20.0412 26.277 20.245 26.277C20.4487 26.277 20.6134 26.1122 20.6134 25.9085V24.0358H21.4727C22.8438 24.0358 23.9592 22.9203 23.9592 21.5492V20.3078C23.9592 20.0036 23.9022 19.7086 23.7971 19.4252C25.1361 18.825 26 17.4997 26 16.024ZM13.0004 0.736585C18.2564 0.736585 22.532 5.01232 22.532 10.2682V10.27L22.5423 12.3056C22.4529 12.2994 22.3632 12.2922 22.2723 12.2922C20.2146 12.2922 18.5407 13.966 18.5407 16.0237C18.5407 16.1162 18.55 16.2067 18.5567 16.2979C16.4923 15.8274 14.3125 15.6558 13.0005 15.6558C11.6885 15.6558 9.50821 15.8274 7.44435 16.2982C7.45103 16.2072 7.46028 16.1165 7.46028 16.024C7.46028 13.9663 5.78649 12.2925 3.72874 12.2925C3.63881 12.2925 3.55402 12.2991 3.46896 12.3051V10.2687C3.46896 5.01269 7.74431 0.736585 13.0004 0.736585ZM0.73697 16.024C0.73697 14.8204 1.45003 13.7394 2.55311 13.2689C2.76047 13.1813 2.96423 13.1196 3.17674 13.0836C3.3417 13.0477 3.52697 13.0294 3.72816 13.0294C5.37959 13.0294 6.72296 14.3728 6.72296 16.0242C6.72296 16.1815 6.71088 16.3359 6.68724 16.4854C6.54643 16.5235 6.41692 16.5646 6.28279 16.6047C6.19286 16.6317 6.09907 16.6571 6.01171 16.6846C5.79329 16.754 5.58593 16.8264 5.38499 16.9012C5.35185 16.9133 5.31536 16.9248 5.28247 16.9372C5.0507 17.0258 4.83228 17.1183 4.62492 17.2147C4.56865 17.2409 4.5188 17.2689 4.46432 17.2956C4.31915 17.3668 4.17653 17.4385 4.04395 17.5133C3.9774 17.5508 3.91675 17.5906 3.85354 17.6294C3.74382 17.6965 3.6359 17.7643 3.53569 17.8347C3.473 17.8787 3.41493 17.9239 3.35633 17.9691C3.26691 18.0377 3.18058 18.1074 3.10041 18.1788C3.04619 18.2271 2.99428 18.2757 2.94418 18.325C2.87095 18.3972 2.80234 18.471 2.73785 18.5457C2.69391 18.5966 2.65023 18.6477 2.6104 18.7002C2.59061 18.7264 2.56517 18.7513 2.54641 18.7778C1.44689 18.3042 0.73697 17.225 0.73697 16.024ZM23.2221 21.5496C23.2221 22.5144 22.4371 23.2995 21.4722 23.2995H4.52712C3.56225 23.2995 2.77722 22.5144 2.77722 21.5496V20.3082C2.77722 19.9929 2.85791 19.6889 3.01696 19.406C3.14801 19.1725 3.33481 18.9484 3.5743 18.7351C4.29275 18.0953 5.48733 17.5516 7.09408 17.1397C9.3895 16.5495 11.8863 16.3922 12.9994 16.3922C14.1123 16.3922 16.6091 16.55 18.905 17.1397C21.0467 17.6886 22.4563 18.472 22.9811 19.4055C23.1407 19.6892 23.2213 19.9926 23.2213 20.3077L23.2221 21.5496ZM23.4531 18.777C23.4346 18.7516 23.4107 18.7277 23.3917 18.7023C23.35 18.6478 23.3043 18.5941 23.2583 18.5406C23.1961 18.4684 23.1298 18.3973 23.0589 18.3276C23.0065 18.276 22.9528 18.2251 22.896 18.175C22.8179 18.1061 22.7344 18.0388 22.6481 17.972C22.5869 17.9247 22.5265 17.878 22.4613 17.832C22.3644 17.7639 22.2593 17.6983 22.1529 17.6331C22.0866 17.5925 22.0231 17.5509 21.9535 17.5115C21.8258 17.4393 21.6878 17.37 21.5483 17.3011C21.4889 17.2721 21.4345 17.2415 21.373 17.2127C21.1672 17.1174 20.9498 17.0251 20.7199 16.9372C20.68 16.9221 20.6351 16.9082 20.5947 16.8933C20.401 16.8214 20.2013 16.7515 19.9909 16.6849C19.9002 16.6561 19.803 16.6297 19.709 16.6019C19.5774 16.5629 19.4505 16.5223 19.3125 16.4853C19.2886 16.3357 19.2765 16.1813 19.2765 16.024C19.2765 14.3731 20.6199 13.0292 22.2713 13.0292C22.6784 13.0292 23.0735 13.1099 23.4457 13.2687C24.5493 13.7395 25.2628 14.8207 25.2628 16.0241C25.2631 17.2235 24.5547 18.3016 23.4531 18.777Z" fill="#03221F"/>
</svg>
