<svg width="26" height="29" viewBox="0 0 26 29" fill="none" xmlns="http://www.w3.org/2000/svg">
<path d="M25.8058 22.9242C25.5792 22.6975 20.69 17.9701 17.776 17.7434C18.1645 16.6749 18.3911 15.5417 18.3911 14.4409C18.3911 9.45478 9.77853 0.550777 9.42208 0.194326L9.22775 0L9.00131 0.194326C8.61266 0.550455 0 9.45426 0 14.4409C0 19.5891 4.2093 23.96 9.19541 23.96C10.1343 23.96 11.1057 23.7982 12.0123 23.4744C12.2066 26.2267 14.6674 28.5254 17.549 28.5254C20.4308 28.5254 25.5788 23.5716 25.8057 23.3449L26 23.1506L25.8058 22.9242ZM0.583123 14.4411C0.583123 10.1024 7.86826 2.20211 9.19572 0.809608C10.5233 2.20201 17.8083 10.1023 17.8083 14.4411C17.8083 15.5743 17.5817 16.6753 17.1932 17.7113C14.8617 17.8733 12.9191 19.4599 12.2715 21.532C12.2715 21.5643 12.2392 21.5968 12.2392 21.6291C12.2069 21.7263 12.1743 21.8558 12.142 21.9529C12.1097 22.0824 12.0772 22.2119 12.0772 22.3414C12.0449 22.5032 12.0449 22.6652 12.0123 22.827C11.1704 23.1508 10.3287 23.3126 9.48673 23.3451V20.3339L14.6672 15.1534L14.2788 14.765L9.48695 19.557V12.0778L11.5591 10.0057L11.1706 9.61724L9.51928 11.2686L9.51948 4.04796H8.93672V11.2681L7.25287 9.58456L6.86442 9.97301L8.93652 12.0451V19.5571L4.14467 14.7976L3.75623 15.186L8.93674 20.3665V23.3778C4.37135 23.2159 0.583123 19.2006 0.583123 14.4411ZM17.5492 27.9426C14.8941 27.9426 12.66 25.838 12.563 23.3125H14.0849L16.9989 26.2266L17.3874 25.8381L14.8618 23.3125H18.8119L19.9451 24.4457L20.3335 24.0573L19.5888 23.3125H23.4417V22.7298H19.6538L20.3986 21.985L20.0101 21.5966L18.8769 22.7298H14.9266L17.4522 20.2042L17.0638 19.8157L14.1497 22.7298H12.5953C12.6276 22.5031 12.6602 22.2442 12.6925 22.0175C13.2429 19.9129 15.2504 18.3263 17.5492 18.3263C19.9128 18.3263 24.1865 22.2118 25.1902 23.1507C24.1865 24.0573 19.9127 27.9426 17.5492 27.9426Z" fill="#03221F"/>
</svg>
