<svg width="24" height="31" viewBox="0 0 24 31" fill="none" xmlns="http://www.w3.org/2000/svg">
<path fill-rule="evenodd" clip-rule="evenodd" d="M16.7027 20.8457C18.8798 18.6687 20.0787 15.7744 20.0787 12.6954C20.0787 9.61682 18.8798 6.72221 16.7027 4.54503L12.2695 0.111822C12.1204 -0.037274 11.8789 -0.037274 11.7298 0.111822L7.29635 4.5453C5.11931 6.72234 3.92041 9.61668 3.92041 12.6957C3.92041 15.7746 5.11931 18.6688 7.29635 20.846C8.46997 22.0196 10.0062 22.6927 11.6515 22.7771L11.6513 29.7715H8.56417C8.3533 29.7715 8.18237 29.9424 8.18237 30.1532C8.18237 30.3641 8.3533 30.535 8.56417 30.535H15.4345C15.6454 30.535 15.8163 30.3641 15.8163 30.1532C15.8163 29.9424 15.6454 29.7715 15.4345 29.7715H12.4148V22.773C14.0346 22.6737 15.5451 22.0033 16.7027 20.8457ZM7.83603 20.3061C5.80301 18.2733 4.68371 15.5706 4.68371 12.6955C4.68371 9.82041 5.80328 7.118 7.83603 5.08498L11.9995 0.9212L16.163 5.08471C18.1961 7.11773 19.3154 9.82034 19.3154 12.6952C19.3154 15.5702 18.1958 18.273 16.163 20.3058C15.1497 21.3191 13.8307 21.9117 12.4149 22.01V18.8987C15.0172 18.7491 17.0896 16.5998 17.0896 13.9716C17.0896 13.7608 16.9187 13.5899 16.7078 13.5899C16.4969 13.5899 16.326 13.7608 16.326 13.9716C16.326 16.1788 14.5959 17.9871 12.4146 18.1354L12.4149 11.0886C12.4149 10.8777 12.2439 10.7068 12.0331 10.7068C11.8222 10.7068 11.6513 10.8777 11.6513 11.0886V15.4983C9.63073 15.3332 8.03679 13.6477 8.03679 11.5952C8.03679 11.3843 7.86586 11.2134 7.65499 11.2134C7.44413 11.2134 7.2732 11.3843 7.2732 11.5952C7.2732 14.0683 9.20984 16.0944 11.6513 16.2616V22.0136C10.2101 21.93 8.86535 21.3354 7.83603 20.3061Z" fill="#03221F"/>
<path fill-rule="evenodd" clip-rule="evenodd" d="M4.89097 21.3447C4.79059 21.3133 2.41867 20.5963 0.936229 22.0788C-0.546212 23.5615 0.167881 25.9356 0.199029 26.0362C0.236304 26.1563 0.330554 26.2502 0.450362 26.2875C0.50015 26.303 1.10985 26.4867 1.89259 26.4867C2.68731 26.4867 3.66068 26.2974 4.40776 25.5503C5.89048 24.0676 5.17318 21.6959 5.14183 21.5956C5.10455 21.4758 5.01078 21.382 4.89097 21.3447ZM3.86805 25.0106C2.92849 25.9492 1.41886 25.7274 0.87734 25.6086C0.757266 25.0679 0.532821 23.5623 1.47612 22.619C2.41514 21.68 3.92239 21.9036 4.46336 22.0234C4.5829 22.5641 4.80656 24.0719 3.86805 25.0106Z" fill="#03221F"/>
<path fill-rule="evenodd" clip-rule="evenodd" d="M23.5497 27.9811C23.4999 27.9968 22.8902 28.1803 22.1077 28.1803C21.3127 28.1803 20.3394 27.991 19.5921 27.2439C18.1094 25.7612 18.8266 23.3897 18.858 23.2893C18.8956 23.1695 18.9893 23.0758 19.1088 23.0385C19.2091 23.0074 21.5803 22.2893 23.0636 23.7726C24.5463 25.255 23.8322 27.6294 23.801 27.7298C23.7637 27.8496 23.6698 27.9439 23.5497 27.9811ZM22.5238 24.3126C21.5851 23.3738 20.0779 23.5975 19.5366 23.717C19.4171 24.2577 19.1934 25.7652 20.1319 26.7042C21.0704 27.6427 22.5795 27.4215 23.1218 27.3025C23.2409 26.7604 23.4624 25.2511 22.5238 24.3126Z" fill="#03221F"/>
</svg>
