<svg width="37" height="36" viewBox="0 0 37 36" fill="none" xmlns="http://www.w3.org/2000/svg">
<path d="M0.727073 26.1756C1.28944 31.6459 5.89037 35.8889 11.4628 35.8889C14.1213 35.8889 16.5751 34.9175 18.4666 33.3328C20.358 34.9175 22.8122 35.8889 25.4703 35.8889C31.4516 35.8889 36.3083 31.0324 36.3083 25.0509C36.3083 19.0695 31.4517 14.2129 25.4703 14.2129C24.6012 14.2129 23.7832 14.3152 22.9652 14.5196L31.6559 2.30125L29.5088 0.767476L18.2107 16.6155C16.3703 15.1331 14.0184 14.2127 11.4114 14.2127C10.5423 14.2127 9.7243 14.3151 8.90624 14.5194L17.597 2.30111L15.4499 0.767332C15.4499 0.767332 2.66919 18.6603 2.36245 19.1715C1.08438 21.1143 0.572974 23.0567 0.572974 25.0504C0.675677 25.4595 0.727027 25.8175 0.727027 26.1751L0.727073 26.1756ZM3.0275 25.0509C3.0275 20.3987 6.81067 16.5644 11.514 16.5644C13.5587 16.5644 15.4505 17.2801 16.9329 18.5072C18.7733 20.041 20.0004 22.3924 20.0004 24.9999C20.0004 27.607 18.7734 29.9588 16.8819 31.5436C15.3996 32.7706 13.5591 33.4863 11.514 33.4863C6.8617 33.4863 3.0275 29.7032 3.0275 25.0509Z" fill="#096A62"/>
</svg>
