<svg width="50" height="50" viewBox="0 0 50 50" fill="none" xmlns="http://www.w3.org/2000/svg">
<path fill-rule="evenodd" clip-rule="evenodd" d="M21.2499 25H33.7499C34.4401 25 35.0003 25.5601 35.0003 26.2498V33.7497C35.0003 34.4394 34.4405 34.9996 33.7504 34.9996H16.2504C15.5607 34.9996 15.0005 34.4399 15.0005 33.7497V26.2498C15.0005 25.5602 15.5602 25 16.2504 25H18.7502V23.7501C18.7502 20.3024 21.5552 17.5001 25.0002 17.5001C26.1851 17.5001 27.3399 17.8349 28.3374 18.4648C28.9225 18.8324 29.0951 19.6049 28.7276 20.19C28.3575 20.7724 27.5902 20.9424 27.0025 20.5775C26.4053 20.2 25.7125 19.9999 25.0002 19.9999C22.9323 19.9999 21.2499 21.6828 21.2499 23.7501V25ZM17.5001 32.4999H32.5V27.4998H17.5001V32.4999Z" fill="#03221F"/>
<path d="M11.25 5H6.24989C5.55975 5 5 5.55978 5 6.24989C5 6.94 5.55978 7.49978 6.24989 7.49978H11.25C11.9401 7.49978 12.4999 6.93956 12.4999 6.24989C12.4999 5.55975 11.9397 5 11.25 5Z" fill="#03221F"/>
<path d="M21.2502 7.50002H16.2501C15.56 7.50002 14.9998 6.94024 14.9998 6.25013C14.9998 5.56002 15.56 5.00024 16.2501 5.00024H21.2498C21.9399 5.00024 22.5001 5.56 22.5001 6.25013C22.5001 6.93981 21.9403 7.50002 21.2502 7.50002Z" fill="#03221F"/>
<path fill-rule="evenodd" clip-rule="evenodd" d="M6.25 0H43.75C47.195 0 50 2.80234 50 6.25V43.75C50 47.1977 47.195 50 43.75 50H6.25C2.80502 50 0 47.1977 0 43.75V6.25C0 2.80234 2.80502 0 6.25 0ZM43.75 47.5002C45.8179 47.5002 47.5002 45.8173 47.5002 43.75V6.25C47.5002 4.18214 45.8173 2.49978 43.75 2.49978H6.25C4.18214 2.49978 2.49978 4.1827 2.49978 6.25V43.75C2.49978 45.8179 4.1827 47.5002 6.25 47.5002H43.75Z" fill="#03221F"/>
</svg>
