<svg width="52" height="50" viewBox="0 0 52 50" fill="none" xmlns="http://www.w3.org/2000/svg">
<path fill-rule="evenodd" clip-rule="evenodd" d="M42.4449 10.2467C46.3556 11.3598 49.4537 14.3479 50.7079 18.2154L50.7083 18.2155C51.9746 22.0759 51.2359 26.3135 48.7367 29.5173L48.3304 30.0355C46.8451 31.9256 46.078 34.2809 46.1652 36.6828V37.3436C46.3135 41.396 44.4375 45.2564 41.1606 47.6449C37.8837 50.0334 33.6342 50.6367 29.822 49.2557L29.8213 49.255L29.2017 49.0316C26.9444 48.205 24.4666 48.205 22.2092 49.0316V49.0323L21.5895 49.2557C17.7723 50.6537 13.5086 50.059 10.2212 47.6683C6.93294 45.2776 5.05205 41.406 5.20519 37.3435V36.6828C5.29231 34.2809 4.52523 31.9256 3.03994 30.0355L2.6337 29.5172C0.102052 26.3189 -0.663642 22.0659 0.594778 18.1857C1.85236 14.3048 4.96756 11.3108 8.89458 10.2063L9.52486 10.0234C11.8319 9.3776 13.8367 7.93761 15.1859 5.95749L15.5517 5.40876C17.8162 2.0284 21.6162 0 25.685 0C29.7538 0 33.5537 2.0284 35.8183 5.40876L36.1536 5.99862C37.5027 7.97874 39.5077 9.4186 41.8147 10.0638L42.4449 10.2467ZM46.7037 28.7855L47.1099 28.2672L47.0795 28.2572C49.1738 25.5914 49.8011 22.0573 48.7526 18.8336C47.7041 15.6099 45.1171 13.1214 41.8558 12.1983L41.2255 12.0154C38.4506 11.2263 36.0451 9.48009 34.4358 7.08598V7.08527L34.0699 6.53653C32.1835 3.71832 29.0156 2.02673 25.624 2.02673C22.2324 2.02673 19.0648 3.71845 17.1781 6.53653V6.53724L16.8123 7.08598C15.203 9.48009 12.7974 11.2263 10.0225 12.0154L9.39226 12.1983C6.12388 13.1187 3.53052 15.6106 2.48126 18.8407C1.43202 22.0708 2.06507 25.6112 4.16861 28.277L4.57485 28.7953C6.35502 31.0647 7.27314 33.8921 7.1668 36.774V37.4348C7.03557 40.8251 8.60461 44.0574 11.3497 46.0509C14.0949 48.0453 17.6531 48.538 20.8371 47.3647L21.4567 47.1413C24.1643 46.1502 27.1348 46.1502 29.8416 47.1413H29.8423L30.462 47.3647C33.6445 48.5301 37.1993 48.0318 39.9388 46.0368C42.6789 44.041 44.2436 40.8117 44.1117 37.425V36.7642C44.0054 33.8815 44.9235 31.0549 46.7037 28.7855ZM22.3103 26.8443L31.6707 17.4731L31.6708 17.4733C31.8615 17.2812 32.1217 17.1727 32.3925 17.1727C32.6633 17.1727 32.9228 17.2812 33.1143 17.4733H33.1136L36.4883 20.8373C36.6811 21.0281 36.7889 21.2883 36.7889 21.5591C36.7889 21.8299 36.6811 22.0901 36.4883 22.2808L23.0313 35.7681C22.8406 35.9603 22.5811 36.0687 22.3095 36.0687C22.0387 36.0687 21.7792 35.9603 21.5885 35.7681L14.8087 29.0294C14.428 28.6352 14.428 28.0106 14.8087 27.6164L18.1835 23.9879C18.3749 23.7816 18.6436 23.6639 18.9258 23.6632C19.2072 23.6639 19.4759 23.7816 19.6673 23.9879L22.3103 26.8443ZM16.9532 28.277L22.2691 33.6029L34.374 21.5695L32.4329 19.6382L23.0518 29.0292C22.8547 29.2248 22.5867 29.3312 22.3095 29.3241C22.0351 29.3177 21.7749 29.2 21.5885 28.9987L18.915 26.1728L16.9532 28.277Z" fill="#03221F"/>
</svg>
