<svg width="50" height="50" viewBox="0 0 50 50" fill="none" xmlns="http://www.w3.org/2000/svg">
<path d="M47.9157 25C47.9157 24.4246 48.3825 23.9587 48.9593 23.9586C49.533 23.9586 50 24.4249 50 25C50 38.8063 38.8063 50 25 50C11.1929 50 0 38.8063 0 25C0 11.1929 11.1929 0 25 0C31.6223 0 37.6409 2.575 42.1143 6.77696V3.125C42.1143 2.54954 42.5813 2.08357 43.155 2.08357C43.7318 2.08357 44.1988 2.54988 44.1988 3.125V9.375C44.1988 9.95046 43.7319 10.4164 43.155 10.4164H36.905C36.3313 10.4164 35.8643 9.95013 35.8643 9.375C35.8643 8.79954 36.3313 8.33357 36.905 8.33357H40.7289C38.7332 6.44741 36.4443 4.95152 33.9205 3.88321C31.0962 2.68869 28.095 2.08357 25.0004 2.08357C21.9057 2.08357 18.9046 2.6883 16.0809 3.88321C13.3524 5.03732 10.9009 6.69018 8.79536 8.795C6.69054 10.9009 5.03804 13.3514 3.88357 16.0805C2.68975 18.9042 2.08393 21.9054 2.08393 25C2.08393 28.0943 2.68938 31.0958 3.88357 33.9202C5.03768 36.6483 6.69054 39.0991 8.79536 41.2046C10.9013 43.3102 13.3524 44.9612 16.0809 46.1164C18.9046 47.3109 21.9057 47.9154 25.0004 47.9154C28.0946 47.9154 31.0962 47.3113 33.9205 46.1164C36.6487 44.9612 39.0991 43.3105 41.205 41.2046C43.3105 39.0991 44.9616 36.6487 46.1168 33.9202C47.3113 31.0958 47.9157 28.0946 47.9157 25Z" fill="#03221F"/>
<path fill-rule="evenodd" clip-rule="evenodd" d="M12.501 17.7026L17.7096 13.5407L32.2916 13.5406L37.5009 17.7025L37.4918 36.4587H12.4927V17.7078H12.501V17.7026ZM14.5748 34.3746H35.4087V19.7907H14.5748V34.3746ZM18.4395 15.625L15.8328 17.7086H34.1682L31.5618 15.625H18.4395Z" fill="#03221F"/>
</svg>
