<svg width="42" height="50" viewBox="0 0 42 50" fill="none" xmlns="http://www.w3.org/2000/svg">
<path d="M3.99972 37.1924H9.70108C10.2138 37.1924 10.665 36.7822 10.665 36.2797V20.3341C10.665 19.8214 10.2138 19.4522 9.70108 19.4522H4.82007V18.2525C4.82007 9.20814 12.0084 1.84556 20.8163 1.84556C29.6243 1.84556 36.8126 9.20814 36.8126 18.2525V19.4522H31.9316C31.4189 19.4522 30.9677 19.8214 30.9677 20.3341V36.2797C30.9677 36.7925 31.4189 37.1924 31.9316 37.1924H33.4287V41.571C33.4287 43.6628 31.7266 45.3958 29.6346 45.3958H21.585C21.2056 43.7551 19.7803 42.6067 18.0678 42.6067C16.0682 42.6067 14.448 44.2166 14.448 46.2162V46.3597C14.448 48.3593 16.0682 50 18.0678 50C19.7699 50 21.1953 48.7797 21.585 47.2416H29.6346C32.7417 47.2416 35.2745 44.678 35.2745 41.571V37.1924H37.6329C39.8377 37.1924 41.6321 35.4082 41.6321 33.2034V23.4109C41.6321 21.5446 40.4016 19.9756 38.6583 19.5347V18.2529C38.6583 8.18283 30.6395 0 20.8161 0C10.9926 0 2.97378 8.18292 2.97378 18.2529V19.5347C1.23052 19.9757 0 21.5446 0 23.4109V33.2034C0 35.4082 1.7951 37.1924 3.99972 37.1924ZM19.8938 46.3597C19.8938 47.3441 19.0837 48.1439 18.0993 48.1439C17.1148 48.1439 16.3047 47.3441 16.3047 46.3597V46.2162C16.3047 45.2317 17.1148 44.4319 18.0993 44.4319C19.0837 44.4319 19.8938 45.2318 19.8938 46.2162V46.3597ZM39.7874 23.4107V33.2032C39.7874 34.3928 38.8235 35.3464 37.634 35.3464H32.8145V21.2983H37.634C38.8235 21.2983 39.7874 22.2212 39.7874 23.4107ZM1.8462 23.4107C1.8462 22.2211 2.81008 21.2983 3.99963 21.2983H8.81913V35.3464H3.99963C2.81008 35.3464 1.8462 34.3825 1.8462 33.2032V23.4107Z" fill="#03221F"/>
</svg>
